<svg width="44" height="48" viewBox="0 0 44 48" fill="none" xmlns="http://www.w3.org/2000/svg">
<g clip-path="url(#clip0_35880_118748)">
<path d="M44 0H0V48H44V0Z" fill="white"/>
<path d="M8.85712 29.157H7.79028V33.0477H8.85712C10.095 33.0477 10.8951 32.2849 10.8951 31.102C10.8951 29.9198 10.095 29.1562 8.85712 29.1562M8.52373 29.8616H8.8281C9.67529 29.8616 10.142 30.2999 10.142 31.1012C10.142 31.9024 9.67529 32.3407 8.8281 32.3407H8.52373V29.8616Z" fill="#A11E1C"/>
<path d="M12.4475 29.1562H11.7047V33.0469H12.4475V29.1562Z" fill="#A11E1C"/>
<path d="M13.1425 29.8624H14.2282V33.0477H14.9616V29.8624H16.0379V29.1562H13.1425V29.8624Z" fill="#A11E1C"/>
<path d="M18.9042 29.1562L18.0091 30.7108L17.1047 29.1562H16.2661L17.6373 31.5026V33.0477H18.3708V31.5026L19.7231 29.1562H18.9042Z" fill="#A11E1C"/>
<path d="M27.4562 30.9873C27.6374 30.8058 27.7323 30.5584 27.7323 30.2528C27.7323 29.5851 27.2655 29.1562 26.5321 29.1562H25.1609V33.0469H26.6082C27.3989 33.0469 27.9033 32.5889 27.9033 31.8835C27.9033 31.4923 27.7511 31.1781 27.4554 30.9873M26.5031 29.8522C26.8365 29.8522 26.998 29.9857 26.998 30.2717C26.998 30.5576 26.8647 30.6911 26.5603 30.6911H25.8936V29.8522H26.5031ZM25.903 31.3777H26.5697C26.9604 31.3777 27.1698 31.5395 27.1698 31.8639C27.1698 32.1883 26.9792 32.3501 26.5792 32.3501H25.903V31.3777Z" fill="#A11E1C"/>
<path d="M29.4463 29.1562H28.7034V33.0469H29.4463V29.1562Z" fill="#A11E1C"/>
<path d="M33.0751 30.3958C33.0751 29.6519 32.5323 29.1562 31.7133 29.1562H30.4755V33.0469H31.2089V31.6259H31.6757L32.5519 33.0469H33.3991L32.4185 31.4735C32.8374 31.2732 33.0759 30.8914 33.0759 30.3958M31.1995 29.8616H31.6851C32.1134 29.8616 32.3228 30.0431 32.3228 30.4052C32.3228 30.6338 32.2561 30.9299 31.6851 30.9299H31.1995V29.8616Z" fill="#A11E1C"/>
<path d="M34.684 29.1562H33.9412V33.0477H36.2937V32.3509H34.684V29.1562Z" fill="#A11E1C"/>
<path d="M3.90497 33.0398H4.62901L4.95298 32.2386H6.172L6.49597 33.0398H7.22942L5.57269 29.0156L3.90575 33.0398H3.90497ZM5.2189 31.5811L5.5617 30.7327L5.9045 31.5811H5.2189Z" fill="#A11E1C"/>
<path d="M19.4565 33.0476H20.1805L20.4951 32.2464H21.7141L22.0381 33.0476H22.7715L21.1148 29.0234L19.4581 33.0476H19.4565ZM20.761 31.5983L21.1038 30.75L21.4466 31.5983H20.761Z" fill="#A11E1C"/>
<path d="M36.7604 33.0398H37.4845L37.8084 32.2386H39.0275L39.3514 33.0398H40.0849L38.4282 29.0156L36.7612 33.0398H36.7604ZM38.065 31.5811L38.4078 30.7327L38.7506 31.5811H38.065Z" fill="#A11E1C"/>
<path d="M14.5372 44.1809V40.6932C14.7388 40.6799 14.9114 40.6704 15.0542 40.6634C15.1969 40.6571 15.3177 40.6524 15.4166 40.6508C15.5162 40.6492 15.5954 40.6484 15.655 40.6484C15.9367 40.6484 16.1696 40.6681 16.3532 40.7081C16.5368 40.7482 16.6819 40.8126 16.7878 40.9022C16.8937 40.9917 16.9666 41.1103 17.0066 41.258C17.0466 41.4057 17.0663 41.5824 17.0663 41.7882C17.0663 41.994 17.0427 42.1888 16.9964 42.3428C16.9502 42.4967 16.8756 42.6224 16.7729 42.7182C16.6701 42.8149 16.5368 42.8856 16.3728 42.9319C16.2089 42.9783 16.0096 43.0018 15.7743 43.0018H15.5978C15.546 43.0018 15.4982 43.0018 15.4534 42.9995C15.4087 42.9979 15.3632 42.9963 15.317 42.9947C15.2707 42.9932 15.2181 42.9908 15.1601 42.9877C15.102 42.9845 15.0385 42.983 14.9687 42.983V44.1816H14.5364L14.5372 44.1809ZM14.9694 41.0216V42.6334C15.0393 42.6334 15.1028 42.6342 15.1609 42.6358C15.2189 42.6373 15.273 42.6389 15.3248 42.6405C15.3758 42.6421 15.4283 42.6436 15.4817 42.6452C15.5342 42.6468 15.5939 42.6476 15.6605 42.6476C15.8527 42.6476 16.012 42.6318 16.1375 42.6004C16.263 42.569 16.3626 42.5195 16.4356 42.4512C16.5085 42.3828 16.5603 42.2941 16.5925 42.1825C16.6238 42.0718 16.6395 41.9367 16.6395 41.7772C16.6395 41.6382 16.6254 41.5188 16.5972 41.419C16.5689 41.3193 16.5203 41.2391 16.4505 41.1779C16.3807 41.1166 16.2834 41.0703 16.1571 41.0388C16.0308 41.0074 15.8739 40.9917 15.6849 40.9917H15.5531C15.5084 40.9917 15.4597 40.9933 15.4064 40.9964C15.353 40.9996 15.2911 41.0027 15.2197 41.0066C15.1483 41.0098 15.0652 41.0153 14.9687 41.0216H14.9694Z" fill="#A11E1C"/>
<path d="M16.9722 44.1816L18.1645 40.6641H18.6462L19.8432 44.1816H19.371L19.0729 43.2814H17.7166L17.4185 44.1816H16.9714H16.9722ZM17.8068 42.9232H18.989L18.3975 41.0772L17.806 42.9232H17.8068Z" fill="#A11E1C"/>
<path d="M20.2456 44.1853V40.7031H20.6778V44.1853H20.2456Z" fill="#A11E1C"/>
<path d="M21.3736 44.1846V40.6875H21.7808L23.614 43.5083V40.7024H24.0062V44.1901H23.5936L21.7651 41.3945V44.1854H21.3729L21.3736 44.1846Z" fill="#A11E1C"/>
<path d="M26.9675 41.0865H25.8944V44.1861H25.4668V41.0865H24.4039V40.7031H26.9675V41.0865Z" fill="#A11E1C"/>
<path d="M29.4667 40.8032L29.3772 41.1417C29.3176 41.1221 29.2494 41.1025 29.1733 41.0844C29.0972 41.0663 29.018 41.0506 28.9348 41.0373C28.8517 41.0239 28.7693 41.0145 28.6862 41.0074C28.603 41.0011 28.5238 40.9972 28.4477 40.9972C28.1959 40.9972 27.9951 41.0459 27.8437 41.1441C27.6931 41.2423 27.6177 41.379 27.6177 41.5549C27.6177 41.6342 27.6342 41.7057 27.6672 41.7686C27.7001 41.8314 27.7542 41.8919 27.8288 41.95C27.9033 42.0082 28.0029 42.0631 28.1268 42.1142C28.2508 42.1652 28.4022 42.221 28.581 42.2807C28.7732 42.3404 28.9356 42.404 29.0682 42.4724C29.2007 42.5407 29.3098 42.6138 29.3961 42.6915C29.4824 42.7693 29.5443 42.8573 29.5828 42.9555C29.6204 43.0537 29.64 43.1636 29.64 43.2862C29.64 43.4888 29.5867 43.6593 29.4808 43.7983C29.3749 43.9374 29.2219 44.0442 29.0211 44.1188C28.8211 44.1934 28.5779 44.2303 28.2932 44.2303C28.1974 44.2303 28.0955 44.2256 27.988 44.2154C27.8805 44.2052 27.7707 44.1911 27.6601 44.173C27.5487 44.1549 27.442 44.1329 27.3401 44.1086C27.2373 44.0835 27.1479 44.056 27.0718 44.0269L27.1714 43.6883C27.2475 43.7151 27.3338 43.741 27.4295 43.7653C27.5252 43.7905 27.6248 43.8117 27.7276 43.8297C27.8303 43.8478 27.9323 43.8612 28.0335 43.8698C28.1347 43.8784 28.228 43.8824 28.3143 43.8824C28.5065 43.8824 28.6681 43.8612 28.7983 43.818C28.9293 43.7748 29.0282 43.7119 29.0964 43.6287C29.1647 43.5454 29.1984 43.4448 29.1984 43.3254C29.1984 43.2422 29.1788 43.1683 29.1388 43.1016C29.0988 43.0356 29.0376 42.9751 28.9552 42.9201C28.8721 42.8651 28.7654 42.8109 28.6352 42.756C28.5042 42.701 28.3481 42.6436 28.1653 42.5839C27.9896 42.5242 27.839 42.4606 27.7135 42.3923C27.5872 42.3247 27.4852 42.2501 27.4052 42.1708C27.3252 42.0914 27.2679 42.0034 27.231 41.9068C27.1949 41.811 27.1761 41.701 27.1761 41.5785C27.1761 41.4394 27.2043 41.313 27.2608 41.2006C27.3173 41.0875 27.3981 40.9901 27.504 40.9069C27.6099 40.8244 27.7433 40.76 27.9041 40.7152C28.0649 40.6704 28.2477 40.6484 28.4532 40.6484C28.5693 40.6484 28.6909 40.6555 28.8179 40.6704C28.945 40.6854 29.0658 40.7042 29.178 40.7278C29.291 40.7513 29.3867 40.7757 29.4659 40.8024L29.4667 40.8032Z" fill="#A11E1C"/>
<path d="M40.0425 18.1238L35.1617 20.3759L29.8032 13.6881L35.7869 3.92188H40.0425V18.1238Z" fill="#A11E1C"/>
<path d="M40.0425 26.4647V18.125L35.1617 20.3771L40.0425 26.4647Z" fill="#E1671F"/>
<path d="M29.8032 13.6881L21.9698 3.92188H35.7869L29.8032 13.6881Z" fill="#E1671F"/>
<path d="M27.6499 17.2008L29.7954 13.6959L21.9706 3.92969V15.6267H22.0224C24.0894 15.618 26.0175 16.2009 27.6499 17.2008Z" fill="#FCCA59"/>
<path d="M22.0216 15.6172H21.9698V26.4619L27.6499 17.2C26.0089 16.2 24.0893 15.6172 22.0223 15.6172" fill="#A11E1C"/>
<path d="M31.853 21.9063L35.1617 20.3753L29.8032 13.6875L27.6492 17.2011C29.473 18.3141 30.9407 19.9496 31.853 21.9063Z" fill="#E1671F"/>
<path d="M27.6499 17.2031L21.9698 26.4737L31.8529 21.9083C30.9406 19.9516 29.473 18.317 27.6491 17.2031" fill="#C7181C"/>
<path d="M35.1617 20.375L31.853 21.906C32.4954 23.2884 32.8602 24.8367 32.8602 26.4713H40.0425L35.1617 20.375Z" fill="#FCCA59"/>
<path d="M21.9698 26.4638H32.8515C32.8515 24.8378 32.4954 23.2896 31.8529 21.8984L21.9698 26.4638Z" fill="#A11E1C"/>
<path d="M3.90497 18.1238L8.78575 20.3759L14.145 13.6881L8.16055 3.92188H3.90497V18.1238Z" fill="#A11E1C"/>
<path d="M3.90497 26.4647V18.125L8.78575 20.3771L3.90497 26.4647Z" fill="#E1671F"/>
<path d="M14.145 13.6881L21.9698 3.92188H8.16052L14.145 13.6881Z" fill="#E1671F"/>
<path d="M16.2897 17.2008L14.1442 13.6959L21.969 3.92969V15.6267H21.9172C19.8589 15.618 17.9307 16.2009 16.2897 17.2008Z" fill="#C7181C"/>
<path d="M21.9173 15.6172H21.969V26.4619L16.2975 17.2C17.93 16.2 19.8581 15.6172 21.9165 15.6172" fill="#E1671F"/>
<path d="M12.0953 21.9063L8.7865 20.3753L14.145 13.6875L16.2904 17.1924C14.4666 18.3141 12.9989 19.9496 12.096 21.9063" fill="#E1671F"/>
<path d="M16.2897 17.2031L21.9698 26.4737L12.0953 21.9083C12.9982 19.9516 14.4659 18.317 16.2897 17.2031Z" fill="#C7181C"/>
<path d="M8.78575 20.375L12.0945 21.906C11.4521 23.2884 11.0873 24.8367 11.0873 26.4713H3.90497L8.78575 20.375Z" fill="#FCCA59"/>
<path d="M21.9698 26.4638H11.0881C11.0881 24.8378 11.4442 23.2896 12.0953 21.8984L21.9698 26.4638Z" fill="#A11E1C"/>
<path d="M16.0339 36.625H27.9551V37.0578H16.0339V36.625Z" fill="#A11E1C"/>
</g>
<defs>
<clipPath id="clip0_35880_118748">
<rect width="44" height="48" fill="white"/>
</clipPath>
</defs>
</svg>
